<svg id="Capa_1" enable-background="new 0 0 512 512" height="512" viewBox="0 0 512 512" width="512" xmlns="http://www.w3.org/2000/svg">
  <path d="m504.5 103.146c4.143 0 7.5-3.357 7.5-7.5v-34.806c0-9.63-15-9.644-15 0v9.902h-23.979v-9.902c0-4.143-3.357-7.5-7.5-7.5h-19.254v-29.29c0-13.187-10.729-23.914-23.915-23.914h-15.116c-13.187 0-23.915 10.728-23.915 23.914v29.29h-16.451v-28.855c0-13.187-10.729-23.915-23.915-23.915h-15.116c-13.187 0-23.914 10.729-23.914 23.915v28.855h-16.452v-28.855c0-13.187-10.728-23.915-23.914-23.915h-15.117c-13.187 0-23.915 10.729-23.915 23.915v28.855h-16.452v-28.855c0-13.187-10.728-23.915-23.915-23.915h-15.117c-13.187 0-23.915 10.729-23.915 23.915v28.855h-16.452v-28.855c0-13.187-10.728-23.915-23.915-23.915h-15.114c-13.186 0-23.914 10.729-23.914 23.915v28.855h-15.477c-6.218 0-11.277 5.059-11.277 11.276v27.252c0 6.219 5.059 11.277 11.277 11.277h15.477v308.99h-23.733v-7.5c0-4.143-3.358-7.5-7.5-7.5h-6v-17.721c7.498-2.174 13-9.09 13-17.279 0-9.925-8.075-18-18-18h-5c-9.925 0-18 8.075-18 18 0 8.189 5.502 15.105 13 17.279v17.721h-6c-4.142 0-7.5 3.357-7.5 7.5v44.5c0 8.585 5.184 15.973 12.581 19.225v36.275c0 9.63 15 9.644 15 0v-35.572c8.363-2.768 14.419-10.648 14.419-19.927v-22h23.733v28.36c0 13.187 10.728 23.914 23.914 23.914h15.117c13.187 0 23.915-10.728 23.915-23.914v-8.053h16.452v8.053c0 13.172 10.704 23.889 23.87 23.913v25.227c0 9.63 15 9.644 15 0v-25.226h.161c13.187 0 23.915-10.728 23.915-23.914v-8.053h16.452v8.053c0 13.187 10.728 23.914 23.915 23.914h15.117c13.187 0 23.914-10.728 23.914-23.914v-8.053h16.452v8.053c0 13.187 10.728 23.914 23.914 23.914h.159v25.226c0 9.63 15 9.644 15 0v-25.227c13.166-.024 23.87-10.741 23.87-23.913v-8.053h16.451v7.619c0 13.187 10.729 23.914 23.915 23.914h15.116c13.187 0 23.915-10.728 23.915-23.914v-27.927h23.733v22c0 9.279 6.056 17.159 14.419 19.928v35.572c0 9.63 15 9.644 15 0v-36.275c7.397-3.252 12.581-10.64 12.581-19.225v-44.5c0-4.143-3.357-7.5-7.5-7.5h-6v-17.721c7.498-2.174 13-9.09 13-17.279 0-9.925-8.075-18-18-18h-5c-9.925 0-18 8.075-18 18 0 8.189 5.502 15.105 13 17.279v17.721h-6c-4.143 0-7.5 3.357-7.5 7.5v7.5h-23.732v-154c0-9.642-15-9.785-15 0v196.927c0 4.915-3.999 8.914-8.915 8.914h-15.116c-4.916 0-8.915-3.999-8.915-8.914v-431.012c0-4.915 3.999-8.914 8.915-8.914h15.116c4.916 0 8.915 3.999 8.915 8.914v188.086c0 9.642 15 9.785 15 0v-108.99h19.254c4.143 0 7.5-3.357 7.5-7.5v-9.903h23.978v9.903c0 4.142 3.357 7.5 7.5 7.5zm-486 255.99h5c1.654 0 3 1.346 3 3s-1.346 3-3 3h-5c-1.654 0-3-1.346-3-3s1.346-3 3-3zm8.5 90c0 3.309-2.691 6-6 6s-6-2.691-6-6v-37h12zm461.5-90h5c1.654 0 3 1.346 3 3s-1.346 3-3 3h-5c-1.654 0-3-1.346-3-3s1.346-3 3-3zm8.5 53v37c0 3.309-2.691 6-6 6s-6-2.691-6-6v-37zm-113.679-343.796v19.806h-16.451v-19.806zm-40.366 396.07h-15.116c-4.915 0-8.914-3.999-8.914-8.914v-431.011c0-4.916 3.999-8.915 8.914-8.915h15.116c4.916 0 8.915 3.999 8.915 8.915v431.012c0 4.914-3.999 8.913-8.915 8.913zm-79.396 0h-15.117c-4.916 0-8.915-3.999-8.915-8.914v-98.36c0-9.642-15-9.785-15 0v40.502h-16.452v-294.492h16.452v212.99c0 9.642 15 9.784 15 0v-291.651c0-4.916 3.999-8.915 8.915-8.915h15.117c4.915 0 8.914 3.999 8.914 8.915v431.012c0 4.914-3.999 8.913-8.914 8.913zm-79.398 0h-15.117c-4.916 0-8.915-3.999-8.915-8.914v-431.011c0-4.916 3.999-8.915 8.915-8.915h15.117c4.916 0 8.915 3.999 8.915 8.915v431.012c0 4.914-3.999 8.913-8.915 8.913zm-62.983-298.774c-4.142 0-7.5 3.357-7.5 7.5v282.36c0 4.915-3.999 8.914-8.915 8.914h-15.116c-4.915 0-8.914-3.999-8.914-8.914v-431.011c0-4.916 3.999-8.915 8.914-8.915h15.117c4.916 0 8.915 3.999 8.915 8.915v104.651c0 9.63 15 9.644 15 0v-25.99h16.452v294.492h-16.452v-224.502c-.001-4.143-3.359-7.5-7.501-7.5zm166.295-62.49h16.452v294.492h-16.452zm79.397 0h16.451v294.492h-16.451zm-62.945-34.806v19.806h-16.452v-19.806zm-79.398 0v19.806h-16.452v-19.806zm-79.397 0v19.806h-16.452v-19.806zm-91.151 19.806v-19.806h11.754v19.806zm74.699 344.298v-19.806h16.452v19.806zm79.398 0v-19.806h16.452v19.806zm79.397 0v-19.806h16.452v19.806zm79.397 0v-19.806h16.451v19.806zm91.151-344.298h-11.754v-19.806h11.754z" fill="#fdae5c"/>
</svg>